PathFileType	4	(X/Y/Z)	RBDS018\RBDS018runT45.trc
DataRate	CameraRate	NumFrames	NumMarkers	Units	OrigDataRate	OrigDataStartFrame	OrigNumFrames
150.000000	150.000000	6	33	mm	150.000000	562	4500
Frame#	Time	L.ASIS			L.Heel.Bottom			L.Heel.Lateral			L.Heel.Top			L.Iliac.Crest			L.MT1			L.MT5			L.PSIS			L.Shank.Bottom.Lateral			L.Shank.Bottom.Medial			L.Shank.Top.Lateral			L.Shank.Top.Medial			L.Thigh.Bottom.Lateral			L.Thigh.Bottom.Medial			L.Thigh.Top.Lateral			L.Thigh.Top.Medial			R.ASIS			R.ASY			R.Heel.Bottom			R.Heel.Lateral			R.Heel.Top			R.Iliac.Crest			R.MT1			R.MT5			R.PSIS			R.Shank.Bottom.Lateral			R.Shank.Bottom.Medial			R.Shank.Top.Lateral			R.Shank.Top.Medial			R.Thigh.Bottom.Lateral			R.Thigh.Bottom.Medial			R.Thigh.Top.Lateral			R.Thigh.Top.Medial			
		X1	Y1	Z1	X2	Y2	Z2	X3	Y3	Z3	X4	Y4	Z4	X5	Y5	Z5	X6	Y6	Z6	X7	Y7	Z7	X8	Y8	Z8	X9	Y9	Z9	X10	Y10	Z10	X11	Y11	Z11	X12	Y12	Z12	X13	Y13	Z13	X14	Y14	Z14	X15	Y15	Z15	X16	Y16	Z16	X17	Y17	Z17	X18	Y18	Z18	X19	Y19	Z19	X20	Y20	Z20	X21	Y21	Z21	X22	Y22	Z22	X23	Y23	Z23	X24	Y24	Z24	X25	Y25	Z25	X26	Y26	Z26	X27	Y27	Z27	X28	Y28	Z28	X29	Y29	Z29	X30	Y30	Z30	X31	Y31	Z31	X32	Y32	Z32	X33	Y33	Z33	

563	3.746666666666667	2164.952598730702	1005.649206650237	899.7148042277372	2101.47537831183	37.74536360061743	1011.50003592452	2127.514157696943	42.39797172855851	961.4704697441613	2114.535816935311	86.08442524482126	1003.684800896511	2083.98236230033	1066.99161124428	864.1209773518335	2330.74587841789	39.01651091836082	1032.763997136276	2289.138024566975	39.10747354824267	921.951506497182	2001.561878016225	1014.03754006205	993.4988893665465	2185.741778917191	177.1035973603684	914.1939402019319	2154.171315108717	191.3395734907884	951.375743817232	2189.603648912932	252.7320954529545	884.2855627308383	2159.690841980347	271.5656435015249	923.598854078085	2212.26057466789	615.8517647999261	827.8513946830154	2164.826762173326	595.6487995798908	879.4674765508397	2160.371352471511	711.3460454286922	815.8106796828973	2113.873406973235	691.7031340477034	863.7707974028476	2212.168464905375	986.3403198470481	1118.722523827101	35235153.29766899	-40794.73788472878	-10094.46555158071	1743.814377176158	700.250402428909	1024.26934941828	1744.017455315772	676.1930654827976	1062.673186172537	1779.821495899229	665.2576254178316	1028.024148160728	2160.953407377156	1062.919017258149	1163.273944809422	1643.848510477202	497.6239564314165	991.6445176620981	1652.006584247694	528.7419434514478	1098.997640285065	2027.8742349663	1011.116227029555	1100.275502596472	1857.833547307458	576.1714413788632	1101.097581155954	1873.338721441572	617.7355598833097	1067.531882896359	1936.526154330855	559.7800921874609	1114.683740793439	1950.433866131873	599.8390382624843	1080.849372050644	2155.704340194101	555.6236820374307	1145.078410693364	2095.865319213337	560.1854779964854	1105.497911730961	2142.906461678481	661.6210013453483	1174.517351437136	2083.873613060197	664.008222125124	1140.757016105511	
564	3.753333333333333	2161.375601901471	999.8742522734701	898.7586985591699	2071.050579795064	36.16945032435027	1013.674919724027	2097.009591324255	42.91143357495208	963.5843459141417	2084.085016006478	84.96713709268091	1007.685582381681	2080.825161096934	1059.169711449191	864.2230414309965	2300.352076987133	37.53213627993969	1035.01792188735	2258.760653806077	40.48649551416353	923.721067640749	1998.664149718313	1009.80384292737	995.2050454825435	2161.505051524248	175.3430559707547	916.3142133592635	2129.794867264388	191.3897869851433	952.7434954388498	2169.18003453368	250.3820600732225	885.2630770431911	2139.387055714531	271.0011905315591	923.9006631038862	2201.718956088648	609.4820206463381	827.6247931884117	2155.350483196607	590.493338683277	880.9130042431794	2150.886644852607	705.5901167199186	816.0017393880188	2105.294795574039	687.0293000771826	865.3935291434481	2210.359464169422	979.6461901695803	1117.913467511834	36242059.6459918	-41878.79989973887	-10424.46514618088	1762.545407216252	698.0510302381988	1027.180463191444	1763.573924239113	673.733137499839	1065.414024323734	1798.861364947212	663.3834694675803	1030.249909403298	2158.45802445937	1055.652757788144	1164.071954822734	1663.568093513316	494.8502667455207	994.863611326159	1673.114560643507	525.5051245367279	1102.181408582481	2025.707885983424	1005.778094783563	1101.266563768972	1878.739496185501	573.5921523330085	1103.267366318479	1894.611348622967	614.9881791548819	1069.622759087842	1957.45865576695	556.460372046193	1116.536279801416	1971.646436434556	596.4717328784752	1082.786194689415	2171.134321545024	551.7299878880369	1147.860111967718	2110.440424646502	552.7229472340482	1109.531361032256	2153.951323126941	657.2513730021005	1176.634907502935	2094.05783448394	656.213123209601	1144.499082229755	
565	3.76	2157.690660188038	994.5565024339411	897.5603127595247	2040.570988749915	35.26183003088607	1015.478127760247	2066.449374770879	43.6309940003804	965.3182851602566	2053.561351673308	84.37083509260087	1010.875939362832	2077.656878811656	1052.023029484165	864.2959642867852	2269.777356612009	36.85595309505212	1036.702135634489	2228.246154877676	41.78528470241331	925.1252987196476	1995.711438599375	1006.477234419737	996.6526206554398	2136.328724798132	174.0664777441133	918.018015778377	2104.850092984158	191.8375821914012	953.936967159898	2147.652853955394	248.3854336135119	886.1208313464107	2118.336932757717	270.6981848348981	924.324864184601	2190.534128839312	603.5088268611458	827.4853762322435	2145.054209444947	585.7964752724256	882.2490923397769	2141.092837050652	700.4133323474532	816.3291674760974	2096.256243059107	682.9946220464334	866.9673335325988	2208.374512872126	973.5490818417105	1117.024618148487	37267968.96857042	-42981.3793426101	-10760.82170727291	1779.920646122582	694.336328043099	1030.650096344596	1781.942374605865	669.6406242761196	1068.715015779377	1816.822654308577	660.2783051487596	1032.929865072651	2155.83202459127	1049.340207221393	1164.646425504988	1683.579847093908	490.0923787300501	997.4879981517265	1694.117686174403	519.8246519247162	1104.897557576946	2023.433580744264	1001.57908632127	1102.044593760334	1899.370905810761	570.1080814673907	1105.512114998945	1915.28296968072	611.656812345953	1072.092570357739	1978.261461944155	552.8365958811743	1118.476489167278	1992.379425467758	593.1281115376473	1085.209545403825	2187.134121737651	549.4466255565092	1150.712049393266	2125.829314506284	546.6274519888093	1113.560253190603	2165.305896391747	654.2114740410294	1178.8224726388	2104.76676110262	649.5465532315743	1148.28912917818	
566	3.766666666666667	2154.003681689841	989.847644948696	896.1574935031014	2010.099516070392	34.99932081078815	1016.851867689334	2035.896775526535	44.44814345369682	966.6078181622845	2023.070484576885	84.26736154609027	1013.150020363809	2074.537168835796	1045.857147352855	864.3319088852301	2239.130947816182	36.75569803369346	1037.807652496491	2197.66332736716	42.84937952291529	926.1106432989693	1992.80853918587	1004.002840726887	997.7950612373331	2110.34397177089	173.1896544538685	919.2051832259813	2079.403722970496	192.5813908959486	954.8141951697067	2125.130390965614	246.6795564402905	886.7425759908748	2096.575635369892	270.5757363397921	924.7093915078028	2178.819583860524	598.0143404422635	827.3679166755965	2133.976067810923	581.6088279762264	883.3243593716242	2131.132185066374	695.8877319233588	816.7230364960674	2086.83778164013	679.650202131245	868.358101995554	2206.275836935842	968.2762372060652	1116.090869996323	38313058.91072207	-44102.63000139419	-11103.59500384636	1795.765208720702	689.0787980516141	1034.517280365115	1798.946978764238	663.9566100027884	1072.420441153235	1833.525251149103	655.944545866576	1035.949339848186	2153.16531229346	1044.168350168349	1165.004117878709	1703.827244391583	483.3274276543418	999.53612711708	1714.93700080956	511.8028185366313	1107.15407387384	2021.099228395565	998.4940998866931	1102.589348397395	1919.488811796221	565.7916575713102	1107.781457148252	1935.074952155948	607.8393040875266	1074.936275539914	1998.685067598404	549.034837822661	1120.492225509829	2012.35247736107	589.9486260477278	1088.12997994981	2203.529995967936	548.9734318677613	1153.525214301155	2141.9099870676	542.1911565567558	1117.415668984574	2176.828619723493	652.6670923985761	1181.018166688061	2115.921008167119	644.2561433269987	1151.966775655732	
567	3.773333333333333	2150.451777852313	985.8708148045414	894.6243842471822	1979.644688709925	35.35422043986436	1017.773353641896	2005.367445827791	45.31082595853697	967.4277910127365	1992.657853911529	84.64070211934695	1014.488895057346	2071.549216741926	1040.931087414199	864.3128167654006	2208.466219020455	37.0214938014365	1038.38233371566	2167.043525198291	43.59953789921336	926.6763974799418	1990.07024332484	1002.301085784866	998.6044332270368	2083.690798792425	172.6721158681028	919.8368926854719	2053.50555532484	193.569859328011	955.2774141519775	2101.740379015446	245.2476240901961	887.0460900755949	2074.134187829934	270.6048737847099	924.9092990518901	2166.675102784127	593.064795605665	827.2078035942013	2122.152599134626	577.9770211080074	884.0072244056618	2121.131305646336	692.058973142337	817.1102255112739	2077.115077634688	677.0313384188893	869.445331915691	2204.132423284989	964.0268064364972	1115.160789034222	39377507.11776319	-45242.70566414302	-11452.84480489052	1809.985577321061	682.2359179258855	1038.585577947341	1814.48936310465	656.7128668798721	1076.33317571969	1848.85532638977	650.3671138550645	1039.164096384584	2150.537349499694	1040.252476807598	1165.1709584556	1724.303632078889	474.5667283812924	1001.047076535074	1735.564173091416	501.5893494757996	1108.97053399954	2018.764595933014	996.4598330770906	1102.889515078579	1938.878727311326	560.7238370363629	1110.012011329916	1953.737938331815	603.6099315476229	1078.106932253698	2018.482334705637	545.1725510306198	1122.564267167772	2031.297090730013	587.0314678779444	1091.508732114037	2220.111479777055	550.4427676038846	1156.193357671543	2158.494216270637	539.6558770672299	1120.954206615169	2188.364926486234	652.7330121893669	1183.159370288769	2127.405929098556	640.5493071190602	1155.384791381159	
568	3.78	2147.195510596693	982.7140858071663	893.0608124536062	1949.182132682298	36.30966433913244	1018.257420097706	1974.848487041174	46.23144913218796	967.7953961225531	1962.329707252916	85.49747615237793	1014.95575198799	2068.796364708976	1037.430732819334	864.2136531189735	2177.795222993891	37.47968964395396	1038.518331434908	2136.392520979033	44.02155377240458	926.8710847051968	1987.612528868821	1001.285407736993	999.0655284721803	2056.503685270434	172.5283990745687	919.9438770052639	2027.197041674865	194.8104941638959	955.3000304717624	2077.609120343955	244.1307067404951	887.0048622536588	2051.042991297229	270.817643292791	924.8374484131665	2154.177306998934	588.7190063544733	826.9578911259701	2109.617494944172	574.957051326607	884.2090894110071	2111.191811437525	688.9558048407713	817.4298022358271	2067.156721011248	675.1706544486981	870.141441045998	2202.013511052582	960.9563598337321	1114.294977732056	40461491.23500963	-46401.76011890864	-11808.63087939446	1822.587512333652	673.7586878377327	1042.640594907048	1828.563354060174	647.9331987995504	1080.234897649146	1862.782120544652	643.5177913226238	1042.412648408419	2148.006791319483	1037.631055320444	1165.187098151748	1745.052297007913	463.866691100149	1002.076462532413	1756.05835180897	489.3791181645027	1110.376454140113	2016.497830367422	995.3900697878753	1102.93813284229	1957.37132942192	554.9917384503759	1112.132777547835	1971.076736935264	599.0135980624486	1081.513380783357	2037.430331476269	541.3524085887307	1124.665812036022	2048.981490665595	584.4240898055758	1095.253367181417	2236.642537300425	553.9046714590625	1158.62309231055	2175.339503210906	539.1866361191012	1124.065962361805	2199.753978883655	654.4616175293341	1185.185363724774	2139.07592529602	638.5734493079317	1158.41766510866	
